# xmcd
#
# Track frame offsets: 
#        150
#        12430
#        32364
#        53299
#        76881
#        95342
#        113229
#        134213
#        160389
#        180923
#        195164
#        211997
#
# Disc length: 3021 seconds
#
# Revision: 0
# Processed by: cddbd v1.5.2PL0 Copyright (c) Steve Scherf et al.
# Submitted via: ExactAudioCopy v1.3
#
DISCID=8c0bcb0c
DTITLE=Kelly's Lot - Can't Take My Soul
DYEAR=2019
DGENRE=Blues Rock
TTITLE0=All I Ever Want Is The Blues
TTITLE1=All Hope Ain't Lost
TTITLE2=Alyssa
TTITLE3=Woe Is Me
TTITLE4=Safe And Warm
TTITLE5=Rise Up_Leve-Toi
TTITLE6=Broke Myself
TTITLE7=Let It Breathe
TTITLE8=Dirt
TTITLE9=Little Bit Of This
TTITLE10=Can't Take My Soul
TTITLE11=Mon Ami
EXTD=
EXTT0=
EXTT1=
EXTT2=
EXTT3=
EXTT4=
EXTT5=
EXTT6=
EXTT7=
EXTT8=
EXTT9=
EXTT10=
EXTT11=
PLAYORDER=
